<?xml version="1.0" encoding="UTF-8" standalone="no"?>
<!-- Created with Inkscape (http://www.inkscape.org/) -->

<svg
   xmlns:dc="http://purl.org/dc/elements/1.1/"
   xmlns:cc="http://creativecommons.org/ns#"
   xmlns:rdf="http://www.w3.org/1999/02/22-rdf-syntax-ns#"
   xmlns:svg="http://www.w3.org/2000/svg"
   xmlns="http://www.w3.org/2000/svg"
   xmlns:sodipodi="http://sodipodi.sourceforge.net/DTD/sodipodi-0.dtd"
   xmlns:inkscape="http://www.inkscape.org/namespaces/inkscape"
   width="16"
   height="16"
   viewBox="0 0 16 16"
   id="svg4142"
   version="1.1"
   inkscape:version="0.91 r13725"
   sodipodi:docname="cloud.svg">
  <defs
     id="defs4144" />
  <sodipodi:namedview
     id="base"
     pagecolor="#ffffff"
     bordercolor="#666666"
     borderopacity="1.0"
     inkscape:pageopacity="0.0"
     inkscape:pageshadow="2"
     inkscape:zoom="15.839192"
     inkscape:cx="-7.8436129"
     inkscape:cy="7.5181501"
     inkscape:document-units="px"
     inkscape:current-layer="layer1"
     showgrid="true"
     units="px"
     inkscape:snap-bbox="true"
     inkscape:bbox-paths="true"
     inkscape:bbox-nodes="true"
     inkscape:window-width="1669"
     inkscape:window-height="705"
     inkscape:window-x="26"
     inkscape:window-y="339"
     inkscape:window-maximized="0">
    <inkscape:grid
       type="xygrid"
       id="grid4690"
       empspacing="8" />
  </sodipodi:namedview>
  <metadata
     id="metadata4147">
    <rdf:RDF>
      <cc:Work
         rdf:about="">
        <dc:format>image/svg+xml</dc:format>
        <dc:type
           rdf:resource="http://purl.org/dc/dcmitype/StillImage" />
        <dc:title />
      </cc:Work>
    </rdf:RDF>
  </metadata>
  <g
     inkscape:label="レイヤー 1"
     inkscape:groupmode="layer"
     id="layer1"
     transform="translate(0,-1036.3622)">
    <g
       id="g12"
       transform="matrix(0.00351486,0,0,-0.00302422,-2.8334145,1051.9233)"
       style="fill:#bdbdbd;fill-opacity:1">
      <path
         d="m 806.125,1830.92 c 0,411.96 260.155,778.05 636.405,920.63 -8.98,59.61 -13.59,119.06 -13.59,177.89 0,674.92 549.14,1224.06 1224.06,1224.06 483.44,0 922.89,-291.64 1117.42,-725.7 59.14,14.22 119.61,21.4 181.1,21.4 404.61,0 738.67,-308.12 779.76,-702.03 374.22,-145.39 626.95,-507.34 626.95,-916.25 0,-542.65 -441.48,-984.061 -984.06,-984.061 l -2583.98,0 c -542.58,0 -984.065,441.411 -984.065,984.061"
         style="fill:#bdbdbd;fill-opacity:1;fill-rule:nonzero;stroke:none"
         id="path14"
         inkscape:connector-curvature="0" />
    </g>
  </g>
</svg>
