<?xml version="1.0" encoding="UTF-8" standalone="no"?>
<!-- Created with Inkscape (http://www.inkscape.org/) -->

<svg
   xmlns:dc="http://purl.org/dc/elements/1.1/"
   xmlns:cc="http://creativecommons.org/ns#"
   xmlns:rdf="http://www.w3.org/1999/02/22-rdf-syntax-ns#"
   xmlns:svg="http://www.w3.org/2000/svg"
   xmlns="http://www.w3.org/2000/svg"
   xmlns:sodipodi="http://sodipodi.sourceforge.net/DTD/sodipodi-0.dtd"
   xmlns:inkscape="http://www.inkscape.org/namespaces/inkscape"
   width="16"
   height="16"
   viewBox="0 0 16 16"
   id="svg4142"
   version="1.1"
   inkscape:version="0.91 r13725"
   sodipodi:docname="rain.svg">
  <defs
     id="defs4144" />
  <sodipodi:namedview
     id="base"
     pagecolor="#ffffff"
     bordercolor="#666666"
     borderopacity="1.0"
     inkscape:pageopacity="0.0"
     inkscape:pageshadow="2"
     inkscape:zoom="22.4"
     inkscape:cx="21.516666"
     inkscape:cy="4.8955183"
     inkscape:document-units="px"
     inkscape:current-layer="layer2"
     showgrid="true"
     units="px"
     inkscape:snap-bbox="true"
     inkscape:bbox-paths="true"
     inkscape:bbox-nodes="true"
     inkscape:window-width="1536"
     inkscape:window-height="880"
     inkscape:window-x="0"
     inkscape:window-y="161"
     inkscape:window-maximized="0"
     inkscape:snap-global="false">
    <inkscape:grid
       type="xygrid"
       id="grid4690"
       empspacing="8" />
  </sodipodi:namedview>
  <metadata
     id="metadata4147">
    <rdf:RDF>
      <cc:Work
         rdf:about="">
        <dc:format>image/svg+xml</dc:format>
        <dc:type
           rdf:resource="http://purl.org/dc/dcmitype/StillImage" />
        <dc:title />
      </cc:Work>
    </rdf:RDF>
  </metadata>
  <g
     inkscape:groupmode="layer"
     id="layer2"
     inkscape:label="レイヤー 2">
    <path
       inkscape:connector-curvature="0"
       id="path14-3"
       style="fill:#42a5f5;fill-opacity:1;fill-rule:nonzero;stroke:none"
       d="m 8.1977446,1.853567 0,-0.5427453 c 0,-0.1708256 -0.1385063,-0.310817 -0.3075639,-0.310817 -0.1693051,0 -0.3075639,0.1399914 -0.3075639,0.310817 l 0,0.5427453 C 3.3676691,2.0156586 2.369606e-4,5.4827714 4.659e-8,9.7375348 4.659e-8,9.8195707 0.033069,9.8991314 0.09099978,9.956804 c 0.05792724,0.058238 0.13797235,0.091017 0.21978548,0.091017 l 0.00174,0 c 0.16756185,0 0.3043072,-0.131752 0.31028663,-0.2993245 C 0.65239758,8.9004151 1.3495506,8.2211791 2.2050931,8.2213912 3.0603527,8.2211791 3.7575164,8.9004151 3.7871129,9.7484965 3.793301,9.916069 3.9300393,10.047821 4.0976117,10.047821 l 0.0035,0 c 0.16782,0 0.3045583,-0.131752 0.3105341,-0.2993245 0.029844,-0.8480814 0.7267249,-1.5273174 1.5822674,-1.5271053 0.8555425,-2.121e-4 1.5524232,0.6790239 1.5822673,1.5271053 0.00569,0.1675725 0.1424667,0.2993245 0.3102867,0.2993245 l 0.00746,0 c 0.1675725,0 0.3045583,-0.131752 0.3105341,-0.2993245 0.029561,-0.8480814 0.7264774,-1.5273174 1.5820199,-1.5271053 0.8555071,-2.121e-4 1.5523881,0.6790239 1.5822321,1.5271053 0.0057,0.1675725 0.142962,0.2993245 0.310534,0.2993245 l 0.0033,0 c 0.16782,0 0.304558,-0.131752 0.310534,-0.2993245 0.02984,-0.8480814 0.726973,-1.5273174 1.582232,-1.5271053 0.855543,-2.121e-4 1.552459,0.6790239 1.582303,1.5271053 0.006,0.1675725 0.142714,0.2993245 0.310534,0.2993245 l 0.0017,0 c 0.08154,0 0.161596,-0.03278 0.219552,-0.090734 0.05792,-0.057956 0.09098,-0.1379759 0.09098,-0.2195521 C 15.780124,5.4825592 12.41294,2.0156586 8.1977446,1.853567" />
    <path
       inkscape:connector-curvature="0"
       id="path16"
       style="fill:#42a5f5;fill-opacity:1;fill-rule:nonzero;stroke:none"
       d="m 11.247406,13.435733 c -0.211852,0 -0.383831,0.171586 -0.383831,0.383481 -9.16e-4,0.322778 -0.07677,0.544456 -0.181456,0.716392 -0.155995,0.255216 -0.401647,0.410295 -0.623063,0.500521 -0.1095724,0.04489 -0.2097115,0.07158 -0.2797173,0.08722 -0.035331,0.008 -0.062669,0.01293 -0.080137,0.01603 -0.00401,2.18e-4 -0.00768,0.0012 -0.010745,0.0015 -0.044851,0.0017 -0.088129,0.0027 -0.130491,0.0027 C 9.2033076,15.142964 8.9634626,15.07235 8.7927499,14.979632 8.5403276,14.840538 8.4147277,14.64122 8.3389137,14.439805 c -0.073718,-0.19901 -0.081098,-0.389987 -0.080487,-0.432043 0,-0.0015 0,-0.0028 0,-0.004 l 6.551e-4,-0.01843 0,-5.0684935 C 7.9814609,9.0855058 7.7069407,9.0250181 7.4913771,8.9107143 l 0,5.0696727 c 0,0.0065 -3.057e-4,0.01603 -3.057e-4,0.02738 0.00214,0.132631 0.013539,0.574807 0.2883643,1.030478 0.1375658,0.226961 0.3481944,0.452927 0.6460354,0.615094 0.2966632,0.16217 0.6724582,0.257375 1.128478,0.257375 0.00153,0 0.00249,0 0.00401,0 0.058913,0 0.1197478,-0.0012 0.1826786,-0.0047 l 0.020875,-0.0015 c 0.031618,-0.0049 0.4599943,-0.0473 0.9227393,-0.327368 0.230324,-0.139981 0.470431,-0.345718 0.65097,-0.638974 0.181499,-0.292993 0.296356,-0.67036 0.295439,-1.119 0,-0.211895 -0.171673,-0.383481 -0.383263,-0.383481" />
  </g>
</svg>
