<?xml version="1.0" encoding="UTF-8" standalone="no"?>
<!-- Created with Inkscape (http://www.inkscape.org/) -->

<svg
   xmlns:dc="http://purl.org/dc/elements/1.1/"
   xmlns:cc="http://creativecommons.org/ns#"
   xmlns:rdf="http://www.w3.org/1999/02/22-rdf-syntax-ns#"
   xmlns:svg="http://www.w3.org/2000/svg"
   xmlns="http://www.w3.org/2000/svg"
   xmlns:sodipodi="http://sodipodi.sourceforge.net/DTD/sodipodi-0.dtd"
   xmlns:inkscape="http://www.inkscape.org/namespaces/inkscape"
   width="16"
   height="16"
   viewBox="0 0 16 16"
   id="svg4176"
   version="1.1"
   inkscape:version="0.91 r13725"
   sodipodi:docname="sunny.svg">
  <defs
     id="defs4178" />
  <sodipodi:namedview
     id="base"
     pagecolor="#ffffff"
     bordercolor="#666666"
     borderopacity="1.0"
     inkscape:pageopacity="0.0"
     inkscape:pageshadow="2"
     inkscape:zoom="44.8"
     inkscape:cx="2.7771431"
     inkscape:cy="6.0133317"
     inkscape:document-units="px"
     inkscape:current-layer="layer1"
     showgrid="true"
     units="px"
     inkscape:snap-bbox="true"
     inkscape:bbox-paths="true"
     inkscape:bbox-nodes="true"
     inkscape:window-width="1436"
     inkscape:window-height="1149"
     inkscape:window-x="200"
     inkscape:window-y="93"
     inkscape:window-maximized="0">
    <inkscape:grid
       type="xygrid"
       id="grid4724"
       empspacing="8" />
  </sodipodi:namedview>
  <metadata
     id="metadata4181">
    <rdf:RDF>
      <cc:Work
         rdf:about="">
        <dc:format>image/svg+xml</dc:format>
        <dc:type
           rdf:resource="http://purl.org/dc/dcmitype/StillImage" />
        <dc:title />
      </cc:Work>
    </rdf:RDF>
  </metadata>
  <g
     inkscape:label="レイヤー 1"
     inkscape:groupmode="layer"
     id="layer1"
     transform="translate(0,-1036.3622)">
    <g
       id="g12"
       transform="matrix(0.00327527,0,0,-0.00328398,-2.5721509,1054.4101)"
       style="fill:#ef5350;fill-opacity:1">
      <path
         d="m 4565.57,3039.84 c 0,738.8 -598.91,1337.71 -1337.7,1337.71 -738.8,0 -1337.71,-598.91 -1337.71,-1337.71 0,-738.78 598.91,-1337.69 1337.71,-1337.69 738.79,0 1337.7,598.91 1337.7,1337.69"
         style="fill:#ef5350;fill-opacity:1;fill-rule:nonzero;stroke:none"
         id="path14"
         inkscape:connector-curvature="0" />
      <path
         d="m 3432.87,5304.94 c 0,105.38 -85.43,190.81 -190.8,190.81 l -7.13,0 c -105.37,0 -190.8,-85.43 -190.8,-190.81 l 0,-499.51 c 0,-105.38 85.43,-190.81 190.8,-190.81 l 7.13,0 c 105.37,0 190.8,85.43 190.8,190.81 l 0,499.51"
         style="fill:#ef5350;fill-opacity:1;fill-rule:nonzero;stroke:none"
         id="path16"
         inkscape:connector-curvature="0" />
      <path
         d="m 3432.87,1313.94 c 0,105.38 -85.43,190.81 -190.8,190.81 l -7.13,0 c -105.37,0 -190.8,-85.43 -190.8,-190.81 l 0,-499.51 c 0,-105.379 85.43,-190.809 190.8,-190.809 l 7.13,0 c 105.37,0 190.8,85.43 190.8,190.809 l 0,499.51"
         style="fill:#ef5350;fill-opacity:1;fill-rule:nonzero;stroke:none"
         id="path18"
         inkscape:connector-curvature="0" />
      <path
         d="m 5479.6,3241.09 -506.16,0 c -104.95,0 -190.81,-89.42 -190.81,-194.36 0,-104.95 85.86,-194.37 190.81,-194.37 l 506.16,0 c 104.94,0 190.81,89.42 190.81,194.37 0,104.94 -85.87,194.36 -190.81,194.36"
         style="fill:#ef5350;fill-opacity:1;fill-rule:nonzero;stroke:none"
         id="path20"
         inkscape:connector-curvature="0" />
      <path
         d="m 1673.1,3046.73 c 0,104.94 -85.86,194.36 -190.81,194.36 l -506.157,0 c -104.942,0 -190.809,-89.42 -190.809,-194.36 0,-104.95 85.867,-194.37 190.809,-194.37 l 506.157,0 c 104.95,0 190.81,89.42 190.81,194.37"
         style="fill:#ef5350;fill-opacity:1;fill-rule:nonzero;stroke:none"
         id="path22"
         inkscape:connector-curvature="0" />
      <path
         d="m 4955,4775.08 c -74.21,74.2 -195.64,74.2 -269.84,0 l -357.91,-357.91 c -74.21,-74.21 -74.21,-195.64 0,-269.85 74.2,-74.2 195.64,-74.2 269.84,0 L 4955,4505.23 c 74.21,74.21 74.21,195.64 0,269.85"
         style="fill:#ef5350;fill-opacity:1;fill-rule:nonzero;stroke:none"
         id="path24"
         inkscape:connector-curvature="0" />
      <path
         d="m 1500.73,1320.8 c 74.21,-74.2 195.63,-74.2 269.84,0 l 357.91,357.91 c 74.21,74.21 74.21,195.64 0,269.85 -74.21,74.2 -195.63,74.2 -269.84,0 l -357.91,-357.91 c -74.21,-74.21 -74.21,-195.63 0,-269.85"
         style="fill:#ef5350;fill-opacity:1;fill-rule:nonzero;stroke:none"
         id="path26"
         inkscape:connector-curvature="0" />
      <path
         d="m 4685.16,1320.8 c 74.2,-74.2 195.63,-74.2 269.84,0 74.21,74.22 74.21,195.64 0,269.85 l -357.91,357.91 c -74.2,74.2 -195.64,74.2 -269.84,0 -74.21,-74.21 -74.21,-195.64 0,-269.85 l 357.91,-357.91"
         style="fill:#ef5350;fill-opacity:1;fill-rule:nonzero;stroke:none"
         id="path28"
         inkscape:connector-curvature="0" />
      <path
         d="m 2128.48,4147.32 c 74.21,74.21 74.21,195.64 0,269.85 l -357.91,357.91 c -74.21,74.2 -195.63,74.2 -269.84,0 -74.21,-74.21 -74.21,-195.64 0,-269.85 l 357.91,-357.91 c 74.21,-74.2 195.63,-74.2 269.84,0"
         style="fill:#ef5350;fill-opacity:1;fill-rule:nonzero;stroke:none"
         id="path30"
         inkscape:connector-curvature="0" />
    </g>
  </g>
</svg>
