<?xml version="1.0" standalone="no"?>
<!DOCTYPE svg PUBLIC "-//W3C//DTD SVG 20010904//EN"
 "http://www.w3.org/TR/2001/REC-SVG-20010904/DTD/svg10.dtd">
<svg version="1.0" xmlns="http://www.w3.org/2000/svg"
 width="700.000000pt" height="700.000000pt" viewBox="0 0 700.000000 700.000000"
 preserveAspectRatio="xMidYMid meet">
<metadata>
Created by potrace 1.11, written by Peter Selinger 2001-2013
</metadata>
<g transform="translate(0.000000,700.000000) scale(0.100000,-0.100000)"
fill="#000000" stroke="none">
<path d="M4465 6210 c-62 -6 -113 -36 -139 -79 -10 -18 -28 -81 -38 -140 -11
-58 -24 -110 -28 -115 -5 -5 -123 -10 -263 -10 -252 -1 -254 -1 -289 -26 -100
-68 -100 -210 -2 -271 38 -23 45 -24 247 -25 137 -1 212 -5 219 -12 8 -8 -1
-44 -32 -134 -53 -153 -123 -333 -162 -418 -45 -95 -56 -139 -47 -179 15 -68
66 -111 158 -136 87 -23 147 -12 299 53 240 103 372 132 587 128 77 -2 152 -6
166 -9 172 -43 261 -135 272 -285 14 -190 -104 -336 -333 -410 -65 -22 -82
-25 -195 -40 -104 -14 -323 -7 -477 14 -187 25 -231 27 -270 11 -51 -22 -90
-77 -91 -129 -1 -86 3 -98 42 -137 37 -37 51 -43 146 -56 22 -4 51 -8 64 -10
14 -3 63 -7 110 -11 47 -3 100 -8 116 -10 43 -5 328 -4 405 2 392 31 725 233
826 500 32 85 38 131 37 259 -1 181 -53 314 -169 432 -142 145 -360 214 -659
207 -108 -2 -150 -6 -250 -25 -71 -13 -225 -56 -270 -75 -20 -8 -40 -13 -43
-10 -2 3 16 63 41 133 25 71 60 173 78 228 17 55 35 104 40 109 5 5 275 10
641 10 614 1 634 2 667 21 48 28 72 65 78 119 6 52 -9 100 -42 132 -51 50 -31
49 -663 50 -325 0 -595 4 -598 7 -4 4 -1 48 7 99 16 112 16 106 2 144 -25 70
-94 104 -188 94z"/>
<path d="M965 5886 c-28 -14 -58 -38 -67 -54 -30 -51 -82 -299 -103 -492 -3
-30 -8 -73 -11 -95 -10 -78 -13 -461 -3 -539 5 -43 18 -119 28 -170 82 -393
333 -722 577 -755 249 -34 547 224 745 646 55 116 61 165 30 223 -35 66 -143
107 -220 84 -64 -19 -86 -46 -153 -179 -102 -206 -217 -356 -294 -385 -43 -17
-98 4 -139 53 -84 98 -162 295 -180 457 -14 118 -15 139 -15 275 0 156 10 309
25 410 3 17 7 48 10 70 5 35 12 78 31 182 3 16 9 46 14 68 33 140 -26 219
-167 224 -45 1 -70 -4 -108 -23z"/>
<path d="M2560 5901 c-55 -17 -91 -43 -110 -81 -19 -37 -27 -110 -14 -123 7
-7 50 -124 96 -262 58 -173 130 -481 152 -645 3 -25 8 -54 10 -65 11 -58 26
-220 41 -439 7 -94 25 -137 72 -173 28 -22 47 -27 106 -29 45 -2 84 3 105 12
46 19 90 71 97 114 6 41 -7 295 -20 380 -2 14 -7 59 -10 100 -4 41 -8 77 -10
80 -2 3 -6 30 -10 60 -39 319 -226 939 -308 1021 -52 52 -127 71 -197 50z"/>
<path d="M994 3291 c-25 -12 -50 -33 -65 -57 -24 -40 -27 -68 -29 -316 l0 -37
-393 -3 -394 -3 -41 -28 c-70 -49 -72 -59 -72 -458 0 -329 1 -352 20 -389 27
-53 69 -80 134 -87 72 -8 119 3 156 34 61 50 63 63 64 335 1 135 4 250 8 253
10 10 1432 10 1447 0 11 -6 12 -48 8 -199 -4 -105 -8 -202 -11 -216 -3 -14 -7
-36 -10 -50 -44 -268 -199 -497 -432 -637 -98 -60 -306 -140 -406 -157 -15 -2
-31 -7 -35 -9 -9 -6 -48 -12 -193 -33 -124 -17 -136 -20 -172 -47 -113 -83
-44 -297 99 -309 27 -2 143 8 197 18 31 5 51 8 136 24 237 42 505 151 689 281
266 187 460 514 505 854 3 22 8 60 12 85 10 73 12 582 2 617 -12 43 -55 93
-95 109 -25 11 -116 14 -427 14 -305 0 -397 3 -403 13 -4 6 -8 75 -8 152 -1
107 -5 147 -17 170 -21 38 -55 71 -91 84 -44 17 -137 13 -183 -8z"/>
<path d="M4776 3038 c-133 -49 -140 -247 -12 -305 37 -17 97 -18 925 -18 710
0 885 -3 889 -13 5 -17 -57 -148 -106 -219 -73 -108 -155 -193 -283 -294 -95
-75 -122 -119 -112 -180 13 -85 78 -161 153 -179 66 -16 100 -4 198 70 119 89
211 183 341 346 57 71 158 258 189 350 29 84 32 103 37 224 4 95 3 109 -18
144 -12 22 -35 49 -50 60 -28 21 -30 21 -1075 23 -717 1 -1056 -2 -1076 -9z"/>
<path d="M2734 2591 c-77 -47 -103 -147 -57 -222 44 -70 56 -73 348 -73 143
-1 266 -5 273 -9 17 -12 18 -992 0 -1003 -7 -4 -145 -8 -307 -9 -328 -1 -337
-3 -383 -67 -32 -46 -32 -130 0 -176 51 -71 -2 -67 888 -67 l801 0 36 28 c47
36 67 75 67 130 0 53 -30 102 -80 131 -33 20 -52 21 -332 21 -164 1 -301 4
-305 9 -10 10 -11 983 -1 999 5 9 80 12 270 13 281 1 299 4 341 54 50 60 49
156 -3 211 -46 50 -27 49 -802 49 -692 0 -724 -1 -754 -19z"/>
<path d="M5555 2482 c-47 -10 -87 -37 -110 -76 -20 -34 -25 -60 -30 -146 -7
-131 -13 -208 -20 -252 -2 -18 -6 -51 -9 -73 -9 -81 -48 -238 -78 -313 -65
-160 -151 -265 -311 -378 -91 -64 -117 -101 -117 -164 0 -53 44 -137 87 -168
72 -51 139 -45 244 20 137 86 282 225 355 339 122 194 196 460 219 784 16 233
15 299 -2 334 -31 60 -81 91 -149 94 -32 2 -68 1 -79 -1z"/>
</g>
</svg>
