<?xml version="1.0" encoding="UTF-8" standalone="no"?>
<!-- Created with Inkscape (http://www.inkscape.org/) -->

<svg
   xmlns:dc="http://purl.org/dc/elements/1.1/"
   xmlns:cc="http://creativecommons.org/ns#"
   xmlns:rdf="http://www.w3.org/1999/02/22-rdf-syntax-ns#"
   xmlns:svg="http://www.w3.org/2000/svg"
   xmlns="http://www.w3.org/2000/svg"
   xmlns:sodipodi="http://sodipodi.sourceforge.net/DTD/sodipodi-0.dtd"
   xmlns:inkscape="http://www.inkscape.org/namespaces/inkscape"
   width="60"
   height="40"
   viewBox="0 0 60 40.000001"
   id="svg2"
   version="1.1"
   inkscape:version="0.91 r13725"
   sodipodi:docname="icon.svg">
  <defs
     id="defs4" />
  <sodipodi:namedview
     id="base"
     pagecolor="#ffffff"
     bordercolor="#666666"
     borderopacity="1.0"
     inkscape:pageopacity="0.0"
     inkscape:pageshadow="2"
     inkscape:zoom="11.2"
     inkscape:cx="22.332817"
     inkscape:cy="5.7813622"
     inkscape:document-units="px"
     inkscape:current-layer="layer1"
     showgrid="true"
     units="px"
     inkscape:window-width="2286"
     inkscape:window-height="1218"
     inkscape:window-x="171"
     inkscape:window-y="0"
     inkscape:window-maximized="0"
     inkscape:snap-bbox="true"
     inkscape:bbox-nodes="true">
    <inkscape:grid
       type="xygrid"
       id="grid4136"
       empspacing="12" />
  </sodipodi:namedview>
  <metadata
     id="metadata7">
    <rdf:RDF>
      <cc:Work
         rdf:about="">
        <dc:format>image/svg+xml</dc:format>
        <dc:type
           rdf:resource="http://purl.org/dc/dcmitype/StillImage" />
        <dc:title></dc:title>
      </cc:Work>
    </rdf:RDF>
  </metadata>
  <g
     inkscape:label="body"
     inkscape:groupmode="layer"
     id="layer1"
     transform="translate(0,-1012.3622)">
    <flowRoot
       xml:space="preserve"
       id="flowRoot4159"
       style="font-style:normal;font-variant:normal;font-weight:500;font-stretch:normal;font-size:15px;line-height:100%;font-family:'Rounded Mgen+ 1p';-inkscape-font-specification:'Rounded Mgen+ 1p, Medium';text-align:start;letter-spacing:0px;word-spacing:0px;writing-mode:lr-tb;text-anchor:start;fill:#000000;fill-opacity:1;stroke:none;stroke-width:1px;stroke-linecap:butt;stroke-linejoin:miter;stroke-opacity:1"><flowRegion
         id="flowRegion4161"><rect
           id="rect4163"
           width="67"
           height="41"
           x="1"
           y="7"
           style="font-style:normal;font-variant:normal;font-weight:500;font-stretch:normal;font-size:15px;line-height:100%;font-family:'Rounded Mgen+ 1p';-inkscape-font-specification:'Rounded Mgen+ 1p, Medium';text-align:start;writing-mode:lr-tb;text-anchor:start" /></flowRegion><flowPara
         id="flowPara4167"
         style="font-style:normal;font-variant:normal;font-weight:500;font-stretch:normal;font-size:16.25px;line-height:100%;font-family:'Rounded Mgen+ 1p';-inkscape-font-specification:'Rounded Mgen+ 1p, Medium';text-align:start;writing-mode:lr-tb;text-anchor:start">いち</flowPara><flowPara
         id="flowPara4169"
         style="font-style:normal;font-variant:normal;font-weight:500;font-stretch:normal;font-size:16.25px;line-height:100%;font-family:'Rounded Mgen+ 1p';-inkscape-font-specification:'Rounded Mgen+ 1p, Medium';text-align:start;writing-mode:lr-tb;text-anchor:start">ウェア</flowPara></flowRoot>    <g
       id="g4144"
       transform="matrix(0.83870968,0,0,0.83870968,3.1612903,169.73586)">
      <path
         d="m 25.241828,1022.4899 q -0.273854,-6.9708 -2.638947,-12.7964 -0.199165,-0.5477 0.0249,-1.0456 0.248958,-0.5227 0.796663,-0.722 l 0.348541,-0.099 q 0.597496,-0.1743 1.170099,0.099 0.572601,0.2739 0.821558,0.8216 2.614051,6.1493 2.863008,13.7424 0.0249,0.5976 -0.423227,1.0457 -0.423227,0.4232 -0.995829,0.4232 l -0.52281,0 q -0.597498,0 -1.020725,-0.4232 -0.398331,-0.4481 -0.423227,-1.0457 z m -11.551615,4.1825 q -2.165927,0 -4.0331068,-2.9377 -1.8422833,-2.9626 -1.8422833,-7.17 0,-3.8588 0.896246,-7.5682 0.1493744,-0.6224 0.6721845,-0.9461 0.5228102,-0.3486 1.1700986,-0.2738 l 0.423228,0.049 q 0.5726,0.049 0.896245,0.5477 0.323644,0.473 0.17427,1.0456 -0.821559,3.6099 -0.796663,7.145 0,2.8382 0.896247,4.7801 0.896245,1.9169 1.792491,1.9169 0.572602,0 1.443951,-1.0705 0.896247,-1.0954 1.817389,-3.1618 0.248956,-0.5726 0.796663,-0.7967 0.572601,-0.2489 1.120307,-0.049 l 0.273853,0.099 q 0.572602,0.1991 0.821559,0.7468 0.248956,0.5478 0.0249,1.0955 -1.294578,3.087 -3.111965,4.8297 -1.792492,1.7179 -3.43561,1.7179 z"
         style="font-style:normal;font-variant:normal;font-weight:bold;font-stretch:normal;font-size:17.5px;line-height:100%;font-family:'Rounded Mgen+ 1p';-inkscape-font-specification:'Rounded Mgen+ 1p, Bold';text-align:start;letter-spacing:0px;word-spacing:0px;writing-mode:lr-tb;text-anchor:start;fill:#f15a22;fill-opacity:1;stroke:none;stroke-width:1px;stroke-linecap:butt;stroke-linejoin:miter;stroke-opacity:1"
         id="path4146"
         inkscape:connector-curvature="0" />
      <path
         d="m 34.602619,1011.013 q -0.597496,0 -1.020725,-0.3984 -0.423226,-0.4232 -0.423226,-1.0206 0,-0.5975 0.423226,-1.0207 0.423229,-0.4234 1.020725,-0.4234 l 3.933524,0 q 0.224062,0 0.298749,-0.224 0.124479,-0.5725 0.248958,-1.5434 0.09958,-0.5976 0.547705,-0.9461 0.473018,-0.3735 1.070517,-0.3486 l 0.373435,0 q 0.597498,0.025 0.946037,0.498 0.373436,0.4481 0.273854,1.0207 l -0.224062,1.2945 q -0.04979,0.2242 0.17427,0.2489 l 10.032976,0 q 0.597497,0 1.020725,0.4234 0.423227,0.4232 0.423227,1.0207 0,0.5974 -0.423227,1.0206 -0.423228,0.3984 -1.020725,0.3984 l -10.730057,0 q -0.199164,0 -0.248956,0.2241 -0.572601,1.9418 -1.369264,4.0083 l 0,0.049 0.04979,0 q 2.788321,-1.0455 5.17831,-1.0455 3.510297,0 5.35258,1.5434 1.842284,1.5436 1.842284,4.4065 0,2.9626 -2.564259,4.7552 -2.539364,1.7925 -6.846324,1.7925 -2.365095,0 -4.954249,-0.3984 -0.597498,-0.099 -0.946037,-0.5974 -0.323644,-0.4979 -0.224062,-1.0955 l 0,-0.05 q 0.09958,-0.5974 0.597497,-0.9211 0.497915,-0.3237 1.070517,-0.2241 2.489572,0.3983 4.456334,0.3983 2.78832,0 4.406543,-1.0206 1.618222,-1.0457 1.618222,-2.7884 0,-2.9128 -4.008212,-2.9128 -2.9128,0 -5.501954,1.3692 -1.294577,0.6971 -2.564259,0.1992 l -0.248958,-0.099 q -0.547705,-0.224 -0.771767,-0.7718 -0.224062,-0.5477 0.0249,-1.0705 1.319473,-2.8879 2.116136,-5.5019 0.04979,-0.2241 -0.149374,-0.249 l -3.26134,0 z"
         style="font-style:normal;font-variant:normal;font-weight:bold;font-stretch:normal;font-size:17.5px;line-height:100%;font-family:'Rounded Mgen+ 1p';-inkscape-font-specification:'Rounded Mgen+ 1p, Bold';text-align:start;letter-spacing:0px;word-spacing:0px;writing-mode:lr-tb;text-anchor:start;fill:#00b2e5;fill-opacity:1;stroke:none;stroke-width:1px;stroke-linecap:butt;stroke-linejoin:miter;stroke-opacity:1"
         id="path4148"
         inkscape:connector-curvature="0" />
      <path
         d="m 2.4439518,1043.1951 q -0.5974973,0 -1.0207246,-0.4232 Q 1,1042.3487 1,1041.7512 l 0,-5.6763 q 0,-0.5974 0.4232272,-1.0207 0.448123,-0.4481 1.0207246,-0.4481 l 6.3235135,0 q 0.2240615,0 0.2240615,-0.1992 l 0,-2.1659 q 0,-0.5975 0.4232274,-1.0207 0.4232272,-0.4232 1.0207248,-0.4232 l 0.497914,0 q 0.597498,0 1.020725,0.4232 0.423226,0.4232 0.423226,1.0207 l 0,2.1659 q 0,0.1992 0.248959,0.1992 l 6.647156,0 q 0.597497,0 1.020724,0.4481 0.423228,0.4233 0.423228,1.0207 l 0,3.3112 q 0,5.7259 -3.385818,9.0372 -3.360922,3.2861 -10.0080795,3.9335 -0.6223931,0.049 -1.0954117,-0.3486 -0.4730189,-0.3734 -0.5726016,-0.9709 l -0.049792,-0.2241 q -0.074688,-0.5726 0.2987486,-1.0207 0.3734359,-0.4481 0.9460375,-0.498 5.3774757,-0.5725 7.9168397,-2.9875 2.539363,-2.4398 2.539363,-6.9209 l 0,-1.5685 q 0,-0.224 -0.199166,-0.224 l -12.5723389,0 q -0.2240615,0 -0.2240615,0.224 l 0,3.9336 q 0,0.5975 -0.4232272,1.0207 -0.4232274,0.4232 -1.0207246,0.4232 l -0.4232276,0 z"
         style="font-style:normal;font-variant:normal;font-weight:bold;font-stretch:normal;font-size:17.5px;line-height:100%;font-family:'Rounded Mgen+ 1p';-inkscape-font-specification:'Rounded Mgen+ 1p, Bold';text-align:start;letter-spacing:0px;word-spacing:0px;writing-mode:lr-tb;text-anchor:start;fill:#8d2e90;fill-opacity:1;stroke:none;stroke-width:1px;stroke-linecap:butt;stroke-linejoin:miter;stroke-opacity:1"
         id="path4150"
         inkscape:connector-curvature="0" />
      <path
         d="m 25.257577,1051.5752 q -0.572601,0 -0.995827,-0.3982 -0.398333,-0.4232 -0.398333,-0.971 0,-0.5975 0.398333,-0.9958 0.423226,-0.3984 0.995827,-0.3984 l 4.829771,0 q 0.224062,0 0.224062,-0.2241 l 0,-8.6139 q 0,-0.1992 -0.224062,-0.1992 l -4.232272,0 q -0.572603,0 -0.970933,-0.3982 -0.398333,-0.4232 -0.398333,-0.9959 0,-0.5726 0.398333,-0.9709 0.423226,-0.4232 0.970933,-0.4232 l 12.149111,0 q 0.572602,0 0.970933,0.4232 0.398333,0.3983 0.398333,0.9709 0,0.5976 -0.423229,0.9959 -0.39833,0.3982 -0.946037,0.3982 l -4.232272,0 q -0.224062,0 -0.224062,0.1992 l 0,8.6139 q 0,0.1993 0.224062,0.2241 l 4.82977,0 q 0.572601,0 0.970934,0.3984 0.423226,0.3983 0.423226,0.9958 0,0.5725 -0.423226,0.971 -0.398333,0.3982 -0.970934,0.3982 l -13.344108,0 z"
         style="font-style:normal;font-variant:normal;font-weight:bold;font-stretch:normal;font-size:17.5px;line-height:100%;font-family:'Rounded Mgen+ 1p';-inkscape-font-specification:'Rounded Mgen+ 1p, Bold';text-align:start;letter-spacing:0px;word-spacing:0px;writing-mode:lr-tb;text-anchor:start;fill:#80c241;fill-opacity:1;stroke:none;stroke-width:1px;stroke-linecap:butt;stroke-linejoin:miter;stroke-opacity:1"
         id="path4152"
         inkscape:connector-curvature="0" />
      <path
         d="m 43.805398,1036.0611 q -0.597497,0 -1.020724,-0.4232 -0.423228,-0.4232 -0.423228,-1.0208 l 0,-0.074 q 0,-0.5974 0.423228,-1.0206 0.448123,-0.4233 1.020724,-0.4233 l 17.775546,0 q 0.597497,0 0.995829,0.4233 Q 63,1033.9454 63,1034.5428 l 0,0.074 q 0,1.6929 -0.473019,2.8133 -1.643118,3.809 -5.128519,6.2737 -0.497914,0.3486 -1.120307,0.249 -0.622393,-0.099 -0.995829,-0.6224 l -0.224061,-0.3237 q -0.323644,-0.4481 -0.248958,-1.0207 0.09958,-0.5727 0.572602,-0.9211 2.863008,-2.0415 3.908628,-4.7801 0.09958,-0.1991 -0.12448,-0.224 l -15.360661,0 z m 6.622263,2.0415 0.522809,0 q 0.597498,0 1.020725,0.4481 0.423227,0.4232 0.398332,1.0207 -0.12448,5.2778 -1.394161,8.0662 -1.269682,2.7884 -4.331855,4.5311 -0.547706,0.2986 -1.145203,0.1238 -0.597499,-0.1742 -0.921143,-0.697 l -0.174269,-0.3237 q -0.29875,-0.473 -0.17427,-1.0208 0.149374,-0.5725 0.622393,-0.8712 2.190823,-1.3196 3.111964,-3.4606 0.921142,-2.1659 1.020726,-6.3733 0.0249,-0.5975 0.423226,-1.0207 0.423229,-0.4232 1.020726,-0.4232 z"
         style="font-style:normal;font-variant:normal;font-weight:bold;font-stretch:normal;font-size:17.5px;line-height:100%;font-family:'Rounded Mgen+ 1p';-inkscape-font-specification:'Rounded Mgen+ 1p, Bold';text-align:start;letter-spacing:0px;word-spacing:0px;writing-mode:lr-tb;text-anchor:start;fill:#c9242f;fill-opacity:1;stroke:none;stroke-width:1px;stroke-linecap:butt;stroke-linejoin:miter;stroke-opacity:1"
         id="path4154"
         inkscape:connector-curvature="0" />
    </g>
  </g>
</svg>
