<?xml version="1.0" encoding="UTF-8" standalone="no"?>
<!-- Created with Inkscape (http://www.inkscape.org/) -->

<svg
   xmlns:dc="http://purl.org/dc/elements/1.1/"
   xmlns:cc="http://creativecommons.org/ns#"
   xmlns:rdf="http://www.w3.org/1999/02/22-rdf-syntax-ns#"
   xmlns:svg="http://www.w3.org/2000/svg"
   xmlns="http://www.w3.org/2000/svg"
   xmlns:sodipodi="http://sodipodi.sourceforge.net/DTD/sodipodi-0.dtd"
   xmlns:inkscape="http://www.inkscape.org/namespaces/inkscape"
   id="svg2"
   version="1.1"
   inkscape:version="0.91 r13725"
   xml:space="preserve"
   width="200"
   height="200"
   viewBox="0 0 200 200"
   sodipodi:docname="stellite.svg"><metadata
     id="metadata8"><rdf:RDF><cc:Work
         rdf:about=""><dc:format>image/svg+xml</dc:format><dc:type
           rdf:resource="http://purl.org/dc/dcmitype/StillImage" /><dc:title></dc:title></cc:Work></rdf:RDF></metadata><defs
     id="defs6" /><sodipodi:namedview
     pagecolor="#ffffff"
     bordercolor="#666666"
     borderopacity="1"
     objecttolerance="10"
     gridtolerance="10"
     guidetolerance="10"
     inkscape:pageopacity="0"
     inkscape:pageshadow="2"
     inkscape:window-width="1461"
     inkscape:window-height="772"
     id="namedview4"
     showgrid="true"
     inkscape:snap-bbox="true"
     inkscape:bbox-paths="true"
     inkscape:bbox-nodes="true"
     inkscape:zoom="1.2109745"
     inkscape:cx="108.55794"
     inkscape:cy="134.27626"
     inkscape:window-x="711"
     inkscape:window-y="177"
     inkscape:window-maximized="0"
     inkscape:current-layer="g10"><inkscape:grid
       type="xygrid"
       id="grid4152" /></sodipodi:namedview><g
     id="g10"
     inkscape:groupmode="layer"
     inkscape:label="ink_ext_XXXXXX"
     transform="matrix(1.25,0,0,-1.25,0,200.00002)"><g
       id="g12"
       transform="matrix(0.03261473,0,0,0.03261473,-20.529564,-26.122462)"
       style="fill:#90caf9;fill-opacity:1"><path
         d="m 1645.47,1341.48 c -126.66,27.33 -242.18,90.42 -334.18,182.42 -91.99,92.09 -155.07,207.61 -182.42,334.07 -11.72,54.01 -64.84,88.29 -118.85,76.66 -53.997,-11.71 -88.278,-64.94 -76.657,-118.84 35.45,-164.16 117.287,-313.96 236.527,-433.3 119.24,-119.23 269.04,-200.98 433.4,-236.52 7.12,-1.57 14.16,-2.25 21.19,-2.25 46.09,0 87.5,32.04 97.65,78.91 11.62,54 -22.65,107.13 -76.66,118.85"
         style="fill:#90caf9;fill-opacity:1;fill-rule:nonzero;stroke:none"
         id="path14"
         inkscape:connector-curvature="0" /><path
         d="m 1798.6,1509.05 c 10.15,54.3 -25.69,106.55 -79.98,116.71 -75.59,14.05 -144.63,50.77 -199.9,106.05 -54.69,54.59 -91.22,123.63 -105.67,199.7 -10.25,54.2 -62.01,89.66 -116.89,79.59 -54.2,-10.25 -89.85,-62.59 -79.59,-116.9 21.87,-115.71 77.54,-220.89 160.74,-303.9 83.79,-83.88 189.16,-139.54 304.59,-161.22 6.15,-1.09 12.4,-1.66 18.46,-1.66 47.16,0 89.16,33.48 98.24,81.63"
         style="fill:#90caf9;fill-opacity:1;fill-rule:nonzero;stroke:none"
         id="path16"
         inkscape:connector-curvature="0" /><path
         d="m 1548.4,860.23 c 45.51,0 86.72,31.352 97.37,77.532 12.4,53.82 -21.2,107.518 -75,119.928 -177.05,40.71 -338.68,130.26 -467.29,258.79 -128.707,128.8 -218.066,290.22 -258.296,466.69 -12.211,53.72 -65.43,88 -119.731,75.19 -53.808,-12.19 -87.5,-65.82 -75.191,-119.72 48.531,-213.19 156.347,-408 311.812,-563.58 155.276,-155.17 350.196,-263.169 563.766,-312.298 7.62,-1.75 15.14,-2.532 22.56,-2.532"
         style="fill:#90caf9;fill-opacity:1;fill-rule:nonzero;stroke:none"
         id="path18"
         inkscape:connector-curvature="0" /><path
         d="m 3536.98,3708.28 c -78.13,78.12 -204.69,78.12 -282.82,0 L 2501.5,2955.67 c -111.24,67.73 -238.85,104.66 -372.43,104.66 -192,0 -372.46,-74.71 -508.21,-210.46 -39.06,-39.06 -39.06,-102.35 0,-141.4 l 387.41,-387.41 -285.45,-285.44 c -39.07,-39.07 -39.07,-102.34 0,-141.42 19.53,-19.53 45.11,-29.28 70.7,-29.28 25.59,0 51.17,9.75 70.7,29.28 l 285.45,285.45 346.19,-346.18 c 19.53,-19.53 45.12,-29.3 70.71,-29.3 25.58,0 51.17,9.77 70.7,29.3 135.74,135.73 210.55,316.2 210.55,508.2 0,112.78 -26.48,221.29 -75.3,319.39 l 764.46,764.39 c 78.12,78.13 78.12,204.7 0,282.83"
         style="fill:#90caf9;fill-opacity:1;fill-rule:nonzero;stroke:none"
         id="path20"
         inkscape:connector-curvature="0" /><path
         d="m 1428.77,5048.7 -201.66,201.67 214.85,214.84 201.66,-201.66 -214.85,-214.85 z m 343.07,-342.97 -100.83,100.78 -100.82,100.8 214.83,214.82 201.66,-201.55 -214.84,-214.85 z m 343.07,-343.06 -201.66,201.66 214.84,214.84 201.66,-201.66 -214.84,-214.84 z m 343.16,-343.07 -100.88,100.83 -100.87,100.84 214.84,214.83 201.75,-201.66 -214.84,-214.84 z m 342.98,-343.06 -100.79,100.82 -100.78,100.83 214.84,214.85 201.56,-201.66 -214.83,-214.84 z m -356.26,-356.26 -201.56,201.66 214.83,214.83 100.79,-100.81 100.78,-100.83 -214.84,-214.85 z m -329.88,759.57 100.88,-100.83 100.86,-100.85 -214.83,-214.82 -201.76,201.66 214.85,214.84 z m -343.07,343.07 201.66,-201.66 -214.84,-214.84 -201.66,201.66 214.84,214.84 z m -343.07,342.96 100.83,-100.78 100.82,-100.78 -214.83,-214.84 -201.66,201.57 214.84,214.83 z m -343.06,343.08 201.66,-201.66 -214.85,-214.85 -201.657,201.67 214.847,214.84 z M 1371.25,5677.32 1015,5321.07 658.754,4964.81 c -39.063,-39.05 -39.063,-102.34 0,-141.41 l 343.066,-343.05 343.07,-342.98 343.06,-343.06 343.17,-343.07 342.97,-343.07 c 18.75,-18.75 44.14,-29.29 70.7,-29.29 26.56,0 51.95,10.54 70.7,29.29 l 356.25,356.25 356.25,356.25 c 39.06,39.07 39.06,102.34 0,141.41 l -342.97,343.07 -343.16,343.06 -343.07,343.06 -343.06,342.98 -343.07,343.07 c -39.06,39.06 -102.34,39.06 -141.41,0"
         style="fill:#90caf9;fill-opacity:1;fill-rule:nonzero;stroke:none"
         id="path22"
         inkscape:connector-curvature="0" /><path
         d="m 5078.98,1398.61 -100.79,100.82 -100.78,100.83 214.84,214.84 201.56,-201.66 -214.83,-214.83 z m -356.26,-356.26 -201.56,201.66 214.83,214.83 100.79,-100.82 100.78,-100.83 -214.84,-214.84 z m -329.88,759.57 100.88,-100.83 100.86,-100.84 -214.83,-214.83 -201.76,201.66 214.85,214.84 z m -343.07,343.07 201.66,-201.66 -214.84,-214.84 -201.66,201.66 214.84,214.84 z m -343.07,342.96 100.83,-100.78 100.82,-100.78 -214.83,-214.84 -201.66,201.57 214.84,214.83 z m -343.06,343.08 201.66,-201.66 -214.85,-214.84 -201.66,201.66 214.85,214.84 z m 356.25,356.25 201.66,-201.66 -214.85,-214.84 -201.66,201.66 214.85,214.84 z m 544.71,-544.73 -107.41,-107.37 -107.42,-107.38 -100.83,100.78 -100.82,100.8 214.83,214.82 201.65,-201.65 z m 128.24,-557.81 -201.65,201.65 107.41,107.38 107.42,107.37 201.66,-201.56 -214.84,-214.84 z M 4736,1741.67 4635.12,1842.5 4534.25,1943.35 4749.09,2158.17 4950.84,1956.51 4736,1741.67 Z m 426.95,285.55 -343.16,343.06 -343.07,342.98 -343.06,343.05 -343.07,343.08 c -39.06,39.05 -102.34,39.05 -141.41,0 l -356.25,-356.25 -356.25,-356.25 c -39.06,-39.06 -39.06,-102.35 0,-141.42 l 343.07,-343.05 343.07,-342.98 343.06,-343.06 343.17,-343.07 342.97,-343.072 c 18.75,-18.75 44.14,-29.297 70.7,-29.297 26.56,0 51.95,10.547 70.7,29.297 l 356.25,356.252 356.25,356.25 c 39.06,39.07 39.06,102.34 0,141.41 l -342.97,343.07"
         style="fill:#90caf9;fill-opacity:1;fill-rule:nonzero;stroke:none"
         id="path24"
         inkscape:connector-curvature="0" /></g></g></svg>