<?xml version="1.0" encoding="UTF-8" standalone="no"?>
<!-- Created with Inkscape (http://www.inkscape.org/) -->

<svg
   xmlns:dc="http://purl.org/dc/elements/1.1/"
   xmlns:cc="http://creativecommons.org/ns#"
   xmlns:rdf="http://www.w3.org/1999/02/22-rdf-syntax-ns#"
   xmlns:svg="http://www.w3.org/2000/svg"
   xmlns="http://www.w3.org/2000/svg"
   xmlns:sodipodi="http://sodipodi.sourceforge.net/DTD/sodipodi-0.dtd"
   xmlns:inkscape="http://www.inkscape.org/namespaces/inkscape"
   id="svg2"
   version="1.1"
   inkscape:version="0.91 r13725"
   xml:space="preserve"
   width="24"
   height="24"
   viewBox="0 0 24 24"
   sodipodi:docname="twitter.svg"><metadata
     id="metadata8"><rdf:RDF><cc:Work
         rdf:about=""><dc:format>image/svg+xml</dc:format><dc:type
           rdf:resource="http://purl.org/dc/dcmitype/StillImage" /><dc:title></dc:title></cc:Work></rdf:RDF></metadata><defs
     id="defs6" /><sodipodi:namedview
     pagecolor="#ffffff"
     bordercolor="#666666"
     borderopacity="1"
     objecttolerance="10"
     gridtolerance="10"
     guidetolerance="10"
     inkscape:pageopacity="0"
     inkscape:pageshadow="2"
     inkscape:window-width="2023"
     inkscape:window-height="988"
     id="namedview4"
     showgrid="true"
     inkscape:zoom="30.208"
     inkscape:cx="13.632174"
     inkscape:cy="12.29928"
     inkscape:window-x="229"
     inkscape:window-y="22"
     inkscape:window-maximized="0"
     inkscape:current-layer="g10"
     inkscape:snap-bbox="true"
     inkscape:bbox-nodes="true"><inkscape:grid
       type="xygrid"
       id="grid4165"
       empspacing="12" /></sodipodi:namedview><g
     inkscape:groupmode="layer"
     id="layer1"
     inkscape:label="back"
     style="display:none"><rect
       style="opacity:1;fill:#000000;fill-opacity:1;stroke:none;stroke-width:2;stroke-miterlimit:4;stroke-dasharray:none;stroke-opacity:1"
       id="rect4168"
       width="24"
       height="24"
       x="0"
       y="0" /></g><g
     id="g10"
     inkscape:groupmode="layer"
     inkscape:label="ink_ext_XXXXXX"
     transform="matrix(1.25,0,0,-1.25,0,24)"><path
       inkscape:connector-curvature="0"
       id="path16"
       style="fill:#ffffff;fill-opacity:1;fill-rule:nonzero;stroke:none"
       d="m 6.0382344,0 c 7.2456046,0 11.2078616,6.0027593 11.2078616,11.207869 0,0.170572 -0.0035,0.340376 -0.01125,0.509259 0.769073,0.555954 1.437693,1.249687 1.965154,2.039574 -0.705868,-0.313497 -1.465417,-0.524851 -2.262216,-0.620082 0.81331,0.487525 1.437692,1.25921 1.732143,2.178965 -0.761239,-0.451199 -1.603963,-0.779365 -2.501216,-0.956082 -0.71877,0.765619 -1.742512,1.244542 -2.87531,1.244542 -2.175585,0 -3.9397545,-1.764169 -3.9397545,-3.93891 0,-0.309196 0.034642,-0.609714 0.1021461,-0.898174 -3.27379,0.164582 -6.1768237,1.732143 -8.1194448,4.115626 -0.33864114,-0.581989 -0.53352081,-1.258442 -0.53352081,-1.979823 0,-1.36673 0.69549171,-2.573178 1.75291781,-3.278969 -0.6460709,0.01989 -1.2531813,0.197452 -1.7840831,0.492825 -8.755e-4,-0.01643 -8.755e-4,-0.03295 -8.755e-4,-0.05023 0,-1.9080151 1.3580284,-3.5006904 3.1602902,-3.86188 C 3.6003005,6.1145032 3.25209,6.0659657 2.8926668,6.0659657 c -0.2537467,0 -0.5005814,0.025113 -0.7405041,0.07104 0.501503,-1.5650273 1.955631,-2.703892 3.679941,-2.7359944 C 4.4836522,2.344476 2.7853006,1.7148709 0.93968535,1.7148709 0.62184155,1.7148709 0.30831392,1.7329956 10e-7,1.7693989 1.743388,0.6521919 3.8133432,0 6.0382344,0" /></g></svg>